<?xml version="1.0" encoding="UTF-8" standalone="no"?>
<!-- Generator: Adobe Illustrator 15.0.0, SVG Export Plug-In . SVG Version: 6.00 Build 0)  -->

<svg
   xmlns:dc="http://purl.org/dc/elements/1.1/"
   xmlns:cc="http://creativecommons.org/ns#"
   xmlns:rdf="http://www.w3.org/1999/02/22-rdf-syntax-ns#"
   xmlns:svg="http://www.w3.org/2000/svg"
   xmlns="http://www.w3.org/2000/svg"
   xmlns:sodipodi="http://sodipodi.sourceforge.net/DTD/sodipodi-0.dtd"
   xmlns:inkscape="http://www.inkscape.org/namespaces/inkscape"
   version="1.1"
   id="Layer_1"
   x="0px"
   y="0px"
   width="100px"
   height="100px"
   viewBox="0 0 100 100"
   enable-background="new 0 0 100 100"
   xml:space="preserve"
   inkscape:version="0.48.4 r9939"
   sodipodi:docname="seq-client-log4net.svg"
   inkscape:export-filename="C:\Development\Continuous IT\seq-client\asset\seq-client-log4net.png"
   inkscape:export-xdpi="114.98"
   inkscape:export-ydpi="114.98"><metadata
   id="metadata9"><rdf:RDF><cc:Work
       rdf:about=""><dc:format>image/svg+xml</dc:format><dc:type
         rdf:resource="http://purl.org/dc/dcmitype/StillImage" /><dc:title></dc:title></cc:Work></rdf:RDF></metadata><defs
   id="defs7" /><sodipodi:namedview
   pagecolor="#ffffff"
   bordercolor="#666666"
   borderopacity="1"
   objecttolerance="10"
   gridtolerance="10"
   guidetolerance="10"
   inkscape:pageopacity="1"
   inkscape:pageshadow="2"
   inkscape:window-width="774"
   inkscape:window-height="646"
   id="namedview5"
   showgrid="false"
   inkscape:zoom="2.36"
   inkscape:cx="66.610169"
   inkscape:cy="52.856736"
   inkscape:window-x="0"
   inkscape:window-y="0"
   inkscape:window-maximized="0"
   inkscape:current-layer="Layer_1" />
<rect
   y="0.042373206"
   x="0.085731886"
   height="99.915253"
   width="17.588112"
   id="rect3755"
   style="fill:#ff005b;fill-opacity:1;stroke:none"
   inkscape:export-filename="C:\Users\nblumhardt\Desktop\favicon.png"
   inkscape:export-xdpi="13.766008"
   inkscape:export-ydpi="13.766008" /><rect
   style="fill:#b900ff;fill-opacity:1;stroke:none"
   id="rect3759"
   width="34.940182"
   height="99.915253"
   x="19.008793"
   y="0.042373206"
   inkscape:export-filename="C:\Users\nblumhardt\Desktop\favicon.png"
   inkscape:export-xdpi="13.766008"
   inkscape:export-ydpi="13.766008" /><rect
   y="0.042373206"
   x="55.449215"
   height="99.915253"
   width="44.830463"
   id="rect3761"
   style="fill:#007bff;fill-opacity:1;stroke:none"
   inkscape:export-filename="C:\Users\nblumhardt\Desktop\favicon.png"
   inkscape:export-xdpi="13.766008"
   inkscape:export-ydpi="13.766008" /><path
   d="m 94.935578,13.268976 c -1.105447,-0.841763 -7.613069,-1.907489 -11.242524,-0.961337 -10.521786,2.74356 -28.945892,10.113495 -35.504111,17.117115 -1.191362,1.273557 -1.704945,4.539067 -1.972237,6.775862 -0.131738,1.103686 -0.407622,5.145477 -0.407622,5.145477 0,0 -0.8582,-3.402167 -0.741737,-5.168255 0.08782,-1.339039 0.696869,-4.577027 0.696869,-4.577027 0,0 -12.925511,8.863662 -15.11063,14.937261 -0.459171,1.277356 -0.542222,4.103476 -0.490672,5.525079 0.042,1.159677 0.388528,4.387228 0.459169,5.026854 -0.0087,0.0076 -0.01718,0.01804 -0.02577,0.02467 -0.19665,-0.442237 -1.157948,-2.65625 -1.440516,-4.368247 -0.234836,-1.428245 -0.185196,-4.868371 -0.185196,-4.868371 0,0 -3.365024,3.476187 -4.080986,4.976555 -0.513586,1.075217 -0.855337,3.398371 -0.618594,4.56374 0.238655,1.171068 1.890142,4.306564 1.890142,4.306564 l 0.126965,0.06927 C 14.988329,74.333328 17.145963,72.655363 13.65493,78.11401 c -2.187981,3.423044 -3.481487,5.874313 -4.1821762,7.326281 -0.4419888,0.919583 -0.709281,1.564904 -0.8553373,1.94545 -0.2405644,0.630139 -0.4916274,1.280201 -0.2443813,2.057433 l 0.37612,1.184354 1.2228629,0.271413 c 0.6157269,0.133807 1.5130669,0.08161 2.3130369,-0.935715 0.09165,-0.116725 0.222425,-0.290391 0.392347,-0.519102 0.313115,-0.418509 0.764647,-1.035358 1.341238,-1.820184 3.269561,-4.453657 6.61062,-10.612805 15.086663,-20.816452 0.883975,-1.066676 -0.331353,1.784387 3.733406,-2.59335 2.04288,0.89301 4.237543,2.441778 5.139657,2.320305 2.505869,-0.338792 6.843648,-3.126952 8.978172,-4.635864 1.999922,-1.412112 7.265589,-5.242276 7.259861,-6.666725 -0.0038,-1.000247 -2.576511,-1.563004 -3.479579,-2.006186 -1.159859,-0.569402 -4.779765,-1.971074 -4.779765,-1.971074 0,0 3.59604,0.654812 5.05374,1.159678 2.300627,0.79621 5.655151,2.393378 5.655151,2.393378 0,0 8.382492,-5.722471 10.985731,-7.82166 4.851363,-3.916523 12.495936,-10.351693 12.154183,-11.0084 -0.164194,-0.312223 -2.332129,-0.743067 -4.113444,-1.870479 -1.496839,-0.948053 -2.955493,-2.901093 -2.955493,-2.901093 0,0 1.619984,1.229903 3.583631,2.167516 1.961738,0.936661 4.417012,1.11033 4.417012,1.11033 0,0 9.234963,-10.381112 13.153667,-16.528737 1.386107,-2.175107 1.333604,-4.465994 1.044349,-4.686154 z M 67.116132,30.517052 C 59.563204,35.904526 56.003438,39.577157 48.608976,45.775077 38.23038,54.471715 29.20458,63.304738 27.43472,65.436191 16.024185,79.174866 10.572468,88.824436 10.44073,88.795017 10.308995,88.766548 5.7046744,87.391578 30.1085,60.801544 39.422698,50.654834 51.105299,40.172179 61.175552,32.926565 77.488045,21.19028 91.022603,15.897707 91.022603,15.897707 c 0,0 -11.235841,5.582967 -23.906471,14.619345 z"
   id="path3"
   inkscape:connector-curvature="0"
   style="fill:#ffffff"
   sodipodi:nodetypes="ccccccccccccccccccccccccccccccccccccccccccccccccccc" />
</svg>